<mxfile host="Electron" agent="Mozilla/5.0 (Windows NT 10.0; Win64; x64) AppleWebKit/537.36 (KHTML, like Gecko) draw.io/24.7.5 Chrome/126.0.6478.183 Electron/31.3.0 Safari/537.36" version="24.7.5">
  <diagram id="YqZ86VfI66lGM7ILaLzN" name="Сторінка-1">
    <mxGraphModel dx="683" dy="398" grid="1" gridSize="10" guides="1" tooltips="1" connect="1" arrows="1" fold="1" page="1" pageScale="1" pageWidth="827" pageHeight="1169" math="0" shadow="0">
      <root>
        <mxCell id="0" />
        <mxCell id="1" parent="0" />
        <mxCell id="JW5VUFp-ZlsdKmWLyCwy-10" style="edgeStyle=orthogonalEdgeStyle;rounded=0;orthogonalLoop=1;jettySize=auto;html=1;exitX=0.5;exitY=1;exitDx=0;exitDy=0;entryX=0.5;entryY=0;entryDx=0;entryDy=0;" parent="1" source="ZR6BJyleWZM-tU2MsI-7-1" target="JW5VUFp-ZlsdKmWLyCwy-2" edge="1">
          <mxGeometry relative="1" as="geometry">
            <mxPoint x="414" y="100" as="sourcePoint" />
          </mxGeometry>
        </mxCell>
        <mxCell id="JW5VUFp-ZlsdKmWLyCwy-11" style="edgeStyle=orthogonalEdgeStyle;rounded=0;orthogonalLoop=1;jettySize=auto;html=1;exitX=0.5;exitY=1;exitDx=0;exitDy=0;entryX=0.5;entryY=0;entryDx=0;entryDy=0;" parent="1" source="JW5VUFp-ZlsdKmWLyCwy-2" target="JW5VUFp-ZlsdKmWLyCwy-3" edge="1">
          <mxGeometry relative="1" as="geometry" />
        </mxCell>
        <mxCell id="JW5VUFp-ZlsdKmWLyCwy-2" value="&lt;font face=&quot;Consolas&quot; data-font-src=&quot;https://fonts.googleapis.com/css?family=Comfortaa&quot;&gt;&amp;nbsp;RG3 = Y;&lt;br&gt;&amp;nbsp;RG2&amp;nbsp;= X;&lt;br&gt;&amp;nbsp;RG1&amp;nbsp;= 0;&lt;br&gt;&amp;nbsp;СТ = q;&lt;/font&gt;" style="rounded=0;whiteSpace=wrap;html=1;align=left;" parent="1" vertex="1">
          <mxGeometry x="346" y="160" width="136" height="70" as="geometry" />
        </mxCell>
        <mxCell id="iLjsXiCFGrSHstL3xZUq-1" style="edgeStyle=orthogonalEdgeStyle;rounded=0;orthogonalLoop=1;jettySize=auto;html=1;exitX=0.5;exitY=1;exitDx=0;exitDy=0;entryX=0.5;entryY=0;entryDx=0;entryDy=0;" parent="1" source="JW5VUFp-ZlsdKmWLyCwy-3" target="JW5VUFp-ZlsdKmWLyCwy-4" edge="1">
          <mxGeometry relative="1" as="geometry" />
        </mxCell>
        <mxCell id="iLjsXiCFGrSHstL3xZUq-4" style="edgeStyle=orthogonalEdgeStyle;rounded=0;orthogonalLoop=1;jettySize=auto;html=1;exitX=1;exitY=0.5;exitDx=0;exitDy=0;" parent="1" edge="1">
          <mxGeometry relative="1" as="geometry">
            <mxPoint x="414" y="480" as="targetPoint" />
            <Array as="points">
              <mxPoint x="514" y="320" />
              <mxPoint x="514" y="480" />
            </Array>
            <mxPoint x="468" y="320" as="sourcePoint" />
          </mxGeometry>
        </mxCell>
        <mxCell id="JW5VUFp-ZlsdKmWLyCwy-3" value="&lt;font face=&quot;Consolas&quot; data-font-src=&quot;https://fonts.googleapis.com/css?family=Consolas&quot;&gt;RG2[1] = 1&lt;/font&gt;" style="rhombus;whiteSpace=wrap;html=1;" parent="1" vertex="1">
          <mxGeometry x="354" y="280" width="120" height="80" as="geometry" />
        </mxCell>
        <mxCell id="-DyOX_SOB60BBcwwYjAz-1" style="edgeStyle=orthogonalEdgeStyle;rounded=0;orthogonalLoop=1;jettySize=auto;html=1;entryX=0.5;entryY=0;entryDx=0;entryDy=0;" edge="1" parent="1" source="JW5VUFp-ZlsdKmWLyCwy-4" target="JW5VUFp-ZlsdKmWLyCwy-6">
          <mxGeometry relative="1" as="geometry" />
        </mxCell>
        <mxCell id="JW5VUFp-ZlsdKmWLyCwy-4" value="&lt;font data-font-src=&quot;https://fonts.googleapis.com/css?family=Consolas&quot; face=&quot;Consolas&quot;&gt;&amp;nbsp;RG1&amp;nbsp;= RG1&amp;nbsp;+ RG3;&lt;/font&gt;" style="rounded=0;whiteSpace=wrap;html=1;align=left;" parent="1" vertex="1">
          <mxGeometry x="357" y="390" width="120" height="60" as="geometry" />
        </mxCell>
        <mxCell id="iLjsXiCFGrSHstL3xZUq-3" style="edgeStyle=orthogonalEdgeStyle;rounded=0;orthogonalLoop=1;jettySize=auto;html=1;exitX=0.5;exitY=1;exitDx=0;exitDy=0;entryX=0.5;entryY=0;entryDx=0;entryDy=0;" parent="1" source="JW5VUFp-ZlsdKmWLyCwy-6" target="JW5VUFp-ZlsdKmWLyCwy-8" edge="1">
          <mxGeometry relative="1" as="geometry" />
        </mxCell>
        <mxCell id="JW5VUFp-ZlsdKmWLyCwy-6" value="&lt;font face=&quot;Consolas&quot;&gt;&amp;nbsp;RG1&amp;nbsp;= 0.r(RG1);&lt;br&gt;&amp;nbsp;RG2&amp;nbsp;= RG1(1).r(RG2);&lt;br&gt;&amp;nbsp;СТ = СТ - 1;&lt;/font&gt;" style="rounded=0;whiteSpace=wrap;html=1;align=left;" parent="1" vertex="1">
          <mxGeometry x="345" y="510" width="144" height="60" as="geometry" />
        </mxCell>
        <mxCell id="JW5VUFp-ZlsdKmWLyCwy-16" style="edgeStyle=orthogonalEdgeStyle;rounded=0;orthogonalLoop=1;jettySize=auto;html=1;exitX=0.5;exitY=1;exitDx=0;exitDy=0;entryX=0.5;entryY=0;entryDx=0;entryDy=0;" parent="1" source="JW5VUFp-ZlsdKmWLyCwy-8" edge="1" target="ZR6BJyleWZM-tU2MsI-7-2">
          <mxGeometry relative="1" as="geometry">
            <mxPoint x="414" y="740" as="targetPoint" />
          </mxGeometry>
        </mxCell>
        <mxCell id="iLjsXiCFGrSHstL3xZUq-5" style="edgeStyle=orthogonalEdgeStyle;rounded=0;orthogonalLoop=1;jettySize=auto;html=1;exitX=0;exitY=0.5;exitDx=0;exitDy=0;" parent="1" source="JW5VUFp-ZlsdKmWLyCwy-8" edge="1">
          <mxGeometry relative="1" as="geometry">
            <mxPoint x="414" y="253" as="targetPoint" />
            <Array as="points">
              <mxPoint x="304" y="655" />
              <mxPoint x="304" y="253" />
            </Array>
            <mxPoint x="358" y="648" as="sourcePoint" />
          </mxGeometry>
        </mxCell>
        <mxCell id="JW5VUFp-ZlsdKmWLyCwy-8" value="&lt;font face=&quot;Consolas&quot;&gt;СТ = 0&lt;/font&gt;" style="rhombus;whiteSpace=wrap;html=1;" parent="1" vertex="1">
          <mxGeometry x="357" y="615" width="120" height="80" as="geometry" />
        </mxCell>
        <mxCell id="JW5VUFp-ZlsdKmWLyCwy-20" value="&lt;font data-font-src=&quot;https://fonts.googleapis.com/css?family=Consolas&quot; face=&quot;Consolas&quot;&gt;0&lt;/font&gt;" style="text;html=1;strokeColor=none;fillColor=none;align=center;verticalAlign=middle;whiteSpace=wrap;rounded=0;fontSize=20;" parent="1" vertex="1">
          <mxGeometry x="472" y="298" width="40" height="20" as="geometry" />
        </mxCell>
        <mxCell id="JW5VUFp-ZlsdKmWLyCwy-21" style="edgeStyle=orthogonalEdgeStyle;rounded=0;orthogonalLoop=1;jettySize=auto;html=1;exitX=0.5;exitY=1;exitDx=0;exitDy=0;fontSize=20;" parent="1" edge="1">
          <mxGeometry relative="1" as="geometry">
            <mxPoint x="434" y="720" as="sourcePoint" />
            <mxPoint x="434" y="720" as="targetPoint" />
          </mxGeometry>
        </mxCell>
        <mxCell id="JW5VUFp-ZlsdKmWLyCwy-22" value="&lt;font data-font-src=&quot;https://fonts.googleapis.com/css?family=Consolas&quot; face=&quot;Consolas&quot;&gt;1&lt;/font&gt;" style="text;html=1;strokeColor=none;fillColor=none;align=center;verticalAlign=middle;whiteSpace=wrap;rounded=0;fontSize=20;" parent="1" vertex="1">
          <mxGeometry x="408" y="361" width="40" height="20" as="geometry" />
        </mxCell>
        <mxCell id="ZR6BJyleWZM-tU2MsI-7-1" value="&lt;font style=&quot;font-size: 14px;&quot; data-font-src=&quot;https://fonts.googleapis.com/css?family=Consolas&quot; face=&quot;Consolas&quot;&gt;BEGIN&lt;/font&gt;" style="rounded=1;whiteSpace=wrap;html=1;" parent="1" vertex="1">
          <mxGeometry x="354" y="60" width="120" height="60" as="geometry" />
        </mxCell>
        <mxCell id="ZR6BJyleWZM-tU2MsI-7-2" value="&lt;font style=&quot;font-size: 14px;&quot; data-font-src=&quot;https://fonts.googleapis.com/css?family=Consolas&quot; face=&quot;Consolas&quot;&gt;END&lt;/font&gt;" style="rounded=1;whiteSpace=wrap;html=1;" parent="1" vertex="1">
          <mxGeometry x="357" y="740" width="120" height="60" as="geometry" />
        </mxCell>
        <mxCell id="ZR6BJyleWZM-tU2MsI-7-3" value="&lt;font data-font-src=&quot;https://fonts.googleapis.com/css?family=Consolas&quot; face=&quot;Consolas&quot;&gt;0&lt;/font&gt;" style="text;html=1;strokeColor=none;fillColor=none;align=center;verticalAlign=middle;whiteSpace=wrap;rounded=0;fontSize=20;" parent="1" vertex="1">
          <mxGeometry x="310" y="634" width="40" height="20" as="geometry" />
        </mxCell>
        <mxCell id="ZR6BJyleWZM-tU2MsI-7-4" value="&lt;font data-font-src=&quot;https://fonts.googleapis.com/css?family=Consolas&quot; face=&quot;Consolas&quot;&gt;1&lt;/font&gt;" style="text;html=1;strokeColor=none;fillColor=none;align=center;verticalAlign=middle;whiteSpace=wrap;rounded=0;fontSize=20;" parent="1" vertex="1">
          <mxGeometry x="407" y="702" width="40" height="20" as="geometry" />
        </mxCell>
      </root>
    </mxGraphModel>
  </diagram>
</mxfile>
